<svg width="1147" height="16" viewBox="0 0 1147 16" fill="none"
  xmlns="http://www.w3.org/2000/svg">
  <path d="M3.85813 12.1193C3.29563 12.1193 2.79421 12.0227 2.35387 11.8295C1.91637 11.6364 1.56836 11.3679 1.30984 11.0241C1.05415 10.6776 0.91495 10.2756 0.892223 9.81818H1.96609C1.98881 10.0994 2.0854 10.3423 2.25586 10.5469C2.42631 10.7486 2.64933 10.9048 2.92489 11.0156C3.20046 11.1264 3.50586 11.1818 3.84109 11.1818C4.21609 11.1818 4.54847 11.1165 4.83825 10.9858C5.12802 10.8551 5.35529 10.6733 5.52006 10.4403C5.68484 10.2074 5.76722 9.9375 5.76722 9.63068C5.76722 9.30966 5.68768 9.02699 5.52859 8.78267C5.3695 8.53551 5.13654 8.34233 4.82972 8.20312C4.5229 8.06392 4.1479 7.99432 3.70472 7.99432H3.00586V7.05682H3.70472C4.05131 7.05682 4.35529 6.99432 4.61665 6.86932C4.88086 6.74432 5.08683 6.56818 5.23455 6.34091C5.38512 6.11364 5.4604 5.84659 5.4604 5.53977C5.4604 5.24432 5.39506 4.98722 5.26438 4.76847C5.1337 4.54972 4.94904 4.37926 4.7104 4.2571C4.47461 4.13494 4.1962 4.07386 3.87518 4.07386C3.57404 4.07386 3.28995 4.12926 3.0229 4.24006C2.7587 4.34801 2.54279 4.50568 2.37518 4.71307C2.20756 4.91761 2.11665 5.16477 2.10245 5.45455H1.07972C1.09677 4.99716 1.23455 4.59659 1.49308 4.25284C1.7516 3.90625 2.08967 3.63636 2.50728 3.44318C2.92773 3.25 3.38938 3.15341 3.89222 3.15341C4.432 3.15341 4.89506 3.26278 5.28143 3.48153C5.66779 3.69744 5.96467 3.98295 6.17205 4.33807C6.37944 4.69318 6.48313 5.0767 6.48313 5.48864C6.48313 5.98011 6.35387 6.39915 6.09535 6.74574C5.83967 7.09233 5.49166 7.33239 5.05131 7.46591V7.53409C5.60245 7.625 6.03285 7.85937 6.34251 8.23722C6.65217 8.61222 6.807 9.0767 6.807 9.63068C6.807 10.1051 6.67773 10.5312 6.41921 10.9091C6.16353 11.2841 5.8141 11.5795 5.37092 11.7955C4.92773 12.0114 4.42347 12.1193 3.85813 12.1193ZM11.6181 3.27273V12H10.5613V4.38068H10.5101L8.37944 5.79545V4.72159L10.5613 3.27273H11.6181ZM18.0144 12H16.9064L20.111 3.27273H21.2019L24.4064 12H23.2985L20.6905 4.65341H20.6223L18.0144 12ZM18.4235 8.59091H22.8894V9.52841H18.4235V8.59091ZM29.7544 9.32386V5.45455H30.7601V12H29.7544V10.892H29.6863C29.5328 11.2244 29.2942 11.5071 28.9703 11.7401C28.6465 11.9702 28.2374 12.0852 27.7431 12.0852C27.334 12.0852 26.9703 11.9957 26.6522 11.8168C26.334 11.6349 26.084 11.3622 25.9022 10.9986C25.7203 10.6321 25.6294 10.1705 25.6294 9.61364V5.45455H26.6351V9.54545C26.6351 10.0227 26.7686 10.4034 27.0357 10.6875C27.3056 10.9716 27.6493 11.1136 28.0669 11.1136C28.3169 11.1136 28.5712 11.0497 28.8297 10.9219C29.0911 10.794 29.3098 10.598 29.486 10.3338C29.665 10.0696 29.7544 9.73295 29.7544 9.32386ZM35.2441 14.5909C34.7583 14.5909 34.3407 14.5284 33.9913 14.4034C33.6419 14.2812 33.3507 14.1193 33.1177 13.9176C32.8876 13.7188 32.7044 13.5057 32.568 13.2784L33.3691 12.7159C33.46 12.8352 33.5751 12.9716 33.7143 13.125C33.8535 13.2812 34.0439 13.4162 34.2853 13.5298C34.5297 13.6463 34.8493 13.7045 35.2441 13.7045C35.7725 13.7045 36.2086 13.5767 36.5524 13.321C36.8961 13.0653 37.068 12.6648 37.068 12.1193V10.7898H36.9828C36.9089 10.9091 36.8038 11.0568 36.6674 11.233C36.5339 11.4062 36.3407 11.5611 36.0879 11.6974C35.8379 11.831 35.4998 11.8977 35.0737 11.8977C34.5453 11.8977 34.0708 11.7727 33.6504 11.5227C33.2328 11.2727 32.9018 10.9091 32.6575 10.4318C32.416 9.95455 32.2953 9.375 32.2953 8.69318C32.2953 8.02273 32.4132 7.43892 32.649 6.94176C32.8848 6.44176 33.2129 6.0554 33.6333 5.78267C34.0538 5.5071 34.5396 5.36932 35.0907 5.36932C35.5169 5.36932 35.8549 5.44034 36.1049 5.58239C36.3578 5.72159 36.551 5.88068 36.6845 6.05966C36.8208 6.2358 36.926 6.38068 36.9998 6.49432H37.1021V5.45455H38.0737V12.1875C38.0737 12.75 37.9458 13.2074 37.6902 13.5597C37.4373 13.9148 37.0964 14.1747 36.6674 14.3395C36.2413 14.5071 35.7669 14.5909 35.2441 14.5909ZM35.21 10.9943C35.6135 10.9943 35.9544 10.902 36.2328 10.7173C36.5112 10.5327 36.7228 10.267 36.8677 9.92045C37.0126 9.57386 37.085 9.15909 37.085 8.67614C37.085 8.20455 37.014 7.78835 36.872 7.42756C36.7299 7.06676 36.5197 6.78409 36.2413 6.57955C35.9629 6.375 35.6191 6.27273 35.21 6.27273C34.7839 6.27273 34.4288 6.38068 34.1447 6.59659C33.8635 6.8125 33.6518 7.10227 33.5098 7.46591C33.3706 7.82955 33.301 8.23295 33.301 8.67614C33.301 9.13068 33.372 9.53267 33.514 9.8821C33.6589 10.2287 33.872 10.5014 34.1532 10.7003C34.4373 10.8963 34.7896 10.9943 35.21 10.9943Z" fill="#9FA7A1"/>
  <path d="M157.187 10.2102V9.34091L161.022 3.27273H161.653V4.61932H161.227L158.329 9.20455V9.27273H163.494V10.2102H157.187ZM161.295 12V9.94602V9.54119V3.27273H162.301V12H161.295ZM173.392 5.45455C173.341 5.02273 173.134 4.6875 172.77 4.44886C172.406 4.21023 171.96 4.09091 171.432 4.09091C171.045 4.09091 170.707 4.15341 170.418 4.27841C170.131 4.40341 169.906 4.57528 169.744 4.79403C169.585 5.01278 169.506 5.26136 169.506 5.53977C169.506 5.77273 169.561 5.97301 169.672 6.14062C169.786 6.3054 169.93 6.44318 170.107 6.55398C170.283 6.66193 170.467 6.75142 170.661 6.82244C170.854 6.89062 171.031 6.94602 171.193 6.98864L172.08 7.22727C172.307 7.28693 172.56 7.36932 172.838 7.47443C173.119 7.57955 173.388 7.72301 173.643 7.90483C173.902 8.08381 174.115 8.31392 174.283 8.59517C174.45 8.87642 174.534 9.22159 174.534 9.63068C174.534 10.1023 174.411 10.5284 174.163 10.9091C173.919 11.2898 173.561 11.5923 173.089 11.8168C172.621 12.0412 172.051 12.1534 171.381 12.1534C170.756 12.1534 170.214 12.0526 169.757 11.8509C169.303 11.6491 168.945 11.3679 168.683 11.0071C168.425 10.6463 168.278 10.2273 168.244 9.75H169.335C169.364 10.0795 169.474 10.3523 169.668 10.5682C169.864 10.7812 170.111 10.9403 170.409 11.0455C170.71 11.1477 171.034 11.1989 171.381 11.1989C171.784 11.1989 172.146 11.1335 172.467 11.0028C172.788 10.8693 173.043 10.6847 173.23 10.4489C173.418 10.2102 173.511 9.93182 173.511 9.61364C173.511 9.32386 173.43 9.08807 173.268 8.90625C173.107 8.72443 172.893 8.5767 172.629 8.46307C172.365 8.34943 172.08 8.25 171.773 8.16477L170.699 7.85795C170.017 7.66193 169.477 7.3821 169.08 7.01847C168.682 6.65483 168.483 6.17898 168.483 5.59091C168.483 5.10227 168.615 4.67614 168.879 4.3125C169.146 3.94602 169.504 3.66193 169.953 3.46023C170.405 3.25568 170.909 3.15341 171.466 3.15341C172.028 3.15341 172.528 3.25426 172.966 3.45597C173.403 3.65483 173.75 3.92756 174.006 4.27415C174.264 4.62074 174.401 5.0142 174.415 5.45455H173.392ZM178.88 12.1364C178.249 12.1364 177.705 11.9972 177.248 11.7188C176.793 11.4375 176.442 11.0455 176.195 10.5426C175.951 10.0369 175.828 9.44886 175.828 8.77841C175.828 8.10795 175.951 7.51705 176.195 7.00568C176.442 6.49148 176.786 6.09091 177.226 5.80398C177.669 5.5142 178.186 5.36932 178.777 5.36932C179.118 5.36932 179.455 5.42614 179.787 5.53977C180.12 5.65341 180.422 5.83807 180.695 6.09375C180.968 6.34659 181.185 6.68182 181.347 7.09943C181.509 7.51705 181.59 8.03125 181.59 8.64205V9.06818H176.544V8.19886H180.567C180.567 7.82955 180.493 7.5 180.346 7.21023C180.201 6.92045 179.993 6.69176 179.723 6.52415C179.456 6.35653 179.141 6.27273 178.777 6.27273C178.377 6.27273 178.03 6.37216 177.738 6.57102C177.448 6.76705 177.225 7.02273 177.069 7.33807C176.912 7.65341 176.834 7.99148 176.834 8.35227V8.93182C176.834 9.42614 176.919 9.84517 177.09 10.1889C177.263 10.5298 177.503 10.7898 177.81 10.9688C178.117 11.1449 178.473 11.233 178.88 11.233C179.144 11.233 179.382 11.196 179.596 11.1222C179.811 11.0455 179.998 10.9318 180.154 10.7812C180.31 10.6278 180.431 10.4375 180.516 10.2102L181.488 10.483C181.385 10.8125 181.213 11.1023 180.972 11.3523C180.73 11.5994 180.432 11.7926 180.077 11.9318C179.722 12.0682 179.323 12.1364 178.88 12.1364ZM183.12 14.4545V5.45455H184.091V6.49432H184.211C184.284 6.38068 184.387 6.2358 184.517 6.05966C184.651 5.88068 184.841 5.72159 185.088 5.58239C185.338 5.44034 185.676 5.36932 186.103 5.36932C186.654 5.36932 187.14 5.5071 187.56 5.78267C187.98 6.05824 188.309 6.44886 188.544 6.95455C188.78 7.46023 188.898 8.05682 188.898 8.74432C188.898 9.4375 188.78 10.0384 188.544 10.5469C188.309 11.0526 187.982 11.4446 187.564 11.723C187.147 11.9986 186.665 12.1364 186.12 12.1364C185.699 12.1364 185.363 12.0668 185.11 11.9276C184.857 11.7855 184.662 11.625 184.526 11.446C184.39 11.2642 184.284 11.1136 184.211 10.9943H184.125V14.4545H183.12ZM184.108 8.72727C184.108 9.22159 184.181 9.65767 184.326 10.0355C184.471 10.4105 184.682 10.7045 184.961 10.9176C185.239 11.1278 185.58 11.233 185.983 11.233C186.404 11.233 186.755 11.1222 187.036 10.9006C187.32 10.6761 187.533 10.375 187.675 9.99716C187.82 9.61648 187.892 9.19318 187.892 8.72727C187.892 8.26705 187.821 7.85227 187.679 7.48295C187.54 7.1108 187.328 6.81676 187.044 6.60085C186.763 6.3821 186.409 6.27273 185.983 6.27273C185.574 6.27273 185.23 6.37642 184.952 6.58381C184.674 6.78835 184.463 7.07528 184.321 7.4446C184.179 7.81108 184.108 8.23864 184.108 8.72727Z" fill="#9FA7A1"/>
  <path d="M311.16 12.1193C310.575 12.1193 310.058 12.0156 309.609 11.8082C309.163 11.598 308.815 11.3097 308.565 10.9432C308.315 10.5739 308.191 10.1534 308.194 9.68182C308.191 9.3125 308.263 8.97159 308.411 8.65909C308.559 8.34375 308.761 8.08097 309.016 7.87074C309.275 7.65767 309.563 7.52273 309.881 7.46591V7.41477C309.464 7.30682 309.131 7.07244 308.884 6.71165C308.637 6.34801 308.515 5.93466 308.518 5.47159C308.515 5.02841 308.627 4.6321 308.854 4.28267C309.082 3.93324 309.394 3.65767 309.792 3.45597C310.192 3.25426 310.648 3.15341 311.16 3.15341C311.665 3.15341 312.117 3.25426 312.515 3.45597C312.913 3.65767 313.225 3.93324 313.452 4.28267C313.683 4.6321 313.799 5.02841 313.802 5.47159C313.799 5.93466 313.673 6.34801 313.423 6.71165C313.175 7.07244 312.847 7.30682 312.438 7.41477V7.46591C312.754 7.52273 313.038 7.65767 313.29 7.87074C313.543 8.08097 313.745 8.34375 313.896 8.65909C314.046 8.97159 314.123 9.3125 314.126 9.68182C314.123 10.1534 313.995 10.5739 313.742 10.9432C313.492 11.3097 313.144 11.598 312.698 11.8082C312.255 12.0156 311.742 12.1193 311.16 12.1193ZM311.16 11.1818C311.555 11.1818 311.896 11.1179 312.183 10.9901C312.469 10.8622 312.691 10.6818 312.847 10.4489C313.004 10.2159 313.083 9.94318 313.086 9.63068C313.083 9.30114 312.998 9.00994 312.83 8.7571C312.663 8.50426 312.434 8.3054 312.144 8.16051C311.857 8.01562 311.529 7.94318 311.16 7.94318C310.788 7.94318 310.455 8.01562 310.163 8.16051C309.873 8.3054 309.644 8.50426 309.477 8.7571C309.312 9.00994 309.231 9.30114 309.234 9.63068C309.231 9.94318 309.306 10.2159 309.46 10.4489C309.616 10.6818 309.839 10.8622 310.129 10.9901C310.418 11.1179 310.762 11.1818 311.16 11.1818ZM311.16 7.03977C311.472 7.03977 311.749 6.97727 311.991 6.85227C312.235 6.72727 312.427 6.55256 312.566 6.32812C312.705 6.10369 312.776 5.84091 312.779 5.53977C312.776 5.24432 312.707 4.98722 312.57 4.76847C312.434 4.54687 312.245 4.37642 312.004 4.2571C311.762 4.13494 311.481 4.07386 311.16 4.07386C310.833 4.07386 310.548 4.13494 310.303 4.2571C310.059 4.37642 309.87 4.54687 309.737 4.76847C309.603 4.98722 309.538 5.24432 309.54 5.53977C309.538 5.84091 309.604 6.10369 309.741 6.32812C309.88 6.55256 310.072 6.72727 310.316 6.85227C310.56 6.97727 310.842 7.03977 311.16 7.03977ZM324.06 5.45455C324.009 5.02273 323.801 4.6875 323.438 4.44886C323.074 4.21023 322.628 4.09091 322.1 4.09091C321.713 4.09091 321.375 4.15341 321.086 4.27841C320.799 4.40341 320.574 4.57528 320.412 4.79403C320.253 5.01278 320.174 5.26136 320.174 5.53977C320.174 5.77273 320.229 5.97301 320.34 6.14062C320.453 6.3054 320.598 6.44318 320.775 6.55398C320.951 6.66193 321.135 6.75142 321.328 6.82244C321.522 6.89062 321.699 6.94602 321.861 6.98864L322.748 7.22727C322.975 7.28693 323.228 7.36932 323.506 7.47443C323.787 7.57955 324.056 7.72301 324.311 7.90483C324.57 8.08381 324.783 8.31392 324.951 8.59517C325.118 8.87642 325.202 9.22159 325.202 9.63068C325.202 10.1023 325.078 10.5284 324.831 10.9091C324.587 11.2898 324.229 11.5923 323.757 11.8168C323.289 12.0412 322.719 12.1534 322.049 12.1534C321.424 12.1534 320.882 12.0526 320.425 11.8509C319.971 11.6491 319.613 11.3679 319.351 11.0071C319.093 10.6463 318.946 10.2273 318.912 9.75H320.003C320.032 10.0795 320.142 10.3523 320.336 10.5682C320.532 10.7812 320.779 10.9403 321.077 11.0455C321.378 11.1477 321.702 11.1989 322.049 11.1989C322.452 11.1989 322.814 11.1335 323.135 11.0028C323.456 10.8693 323.711 10.6847 323.898 10.4489C324.086 10.2102 324.179 9.93182 324.179 9.61364C324.179 9.32386 324.098 9.08807 323.936 8.90625C323.775 8.72443 323.561 8.5767 323.297 8.46307C323.033 8.34943 322.748 8.25 322.441 8.16477L321.367 7.85795C320.685 7.66193 320.145 7.3821 319.748 7.01847C319.35 6.65483 319.151 6.17898 319.151 5.59091C319.151 5.10227 319.283 4.67614 319.547 4.3125C319.814 3.94602 320.172 3.66193 320.621 3.46023C321.073 3.25568 321.577 3.15341 322.134 3.15341C322.696 3.15341 323.196 3.25426 323.634 3.45597C324.071 3.65483 324.418 3.92756 324.674 4.27415C324.932 4.62074 325.069 5.0142 325.083 5.45455H324.06ZM329.548 12.1364C328.917 12.1364 328.373 11.9972 327.915 11.7188C327.461 11.4375 327.11 11.0455 326.863 10.5426C326.619 10.0369 326.496 9.44886 326.496 8.77841C326.496 8.10795 326.619 7.51705 326.863 7.00568C327.11 6.49148 327.454 6.09091 327.894 5.80398C328.337 5.5142 328.854 5.36932 329.445 5.36932C329.786 5.36932 330.123 5.42614 330.455 5.53977C330.788 5.65341 331.09 5.83807 331.363 6.09375C331.636 6.34659 331.853 6.68182 332.015 7.09943C332.177 7.51705 332.258 8.03125 332.258 8.64205V9.06818H327.212V8.19886H331.235C331.235 7.82955 331.161 7.5 331.013 7.21023C330.869 6.92045 330.661 6.69176 330.391 6.52415C330.124 6.35653 329.809 6.27273 329.445 6.27273C329.045 6.27273 328.698 6.37216 328.406 6.57102C328.116 6.76705 327.893 7.02273 327.737 7.33807C327.58 7.65341 327.502 7.99148 327.502 8.35227V8.93182C327.502 9.42614 327.587 9.84517 327.758 10.1889C327.931 10.5298 328.171 10.7898 328.478 10.9688C328.785 11.1449 329.141 11.233 329.548 11.233C329.812 11.233 330.05 11.196 330.263 11.1222C330.479 11.0455 330.665 10.9318 330.822 10.7812C330.978 10.6278 331.099 10.4375 331.184 10.2102L332.156 10.483C332.053 10.8125 331.881 11.1023 331.64 11.3523C331.398 11.5994 331.1 11.7926 330.745 11.9318C330.39 12.0682 329.991 12.1364 329.548 12.1364ZM333.788 14.4545V5.45455H334.759V6.49432H334.879C334.952 6.38068 335.055 6.2358 335.185 6.05966C335.319 5.88068 335.509 5.72159 335.756 5.58239C336.006 5.44034 336.344 5.36932 336.771 5.36932C337.322 5.36932 337.808 5.5071 338.228 5.78267C338.648 6.05824 338.977 6.44886 339.212 6.95455C339.448 7.46023 339.566 8.05682 339.566 8.74432C339.566 9.4375 339.448 10.0384 339.212 10.5469C338.977 11.0526 338.65 11.4446 338.232 11.723C337.815 11.9986 337.333 12.1364 336.788 12.1364C336.367 12.1364 336.031 12.0668 335.778 11.9276C335.525 11.7855 335.33 11.625 335.194 11.446C335.058 11.2642 334.952 11.1136 334.879 10.9943H334.793V14.4545H333.788ZM334.776 8.72727C334.776 9.22159 334.849 9.65767 334.994 10.0355C335.138 10.4105 335.35 10.7045 335.629 10.9176C335.907 11.1278 336.248 11.233 336.651 11.233C337.072 11.233 337.423 11.1222 337.704 10.9006C337.988 10.6761 338.201 10.375 338.343 9.99716C338.488 9.61648 338.56 9.19318 338.56 8.72727C338.56 8.26705 338.489 7.85227 338.347 7.48295C338.208 7.1108 337.996 6.81676 337.712 6.60085C337.431 6.3821 337.077 6.27273 336.651 6.27273C336.242 6.27273 335.898 6.37642 335.62 6.58381C335.342 6.78835 335.131 7.07528 334.989 7.4446C334.847 7.81108 334.776 8.23864 334.776 8.72727ZM343.947 5.45455V6.30682H340.555V5.45455H343.947ZM341.543 3.88636H342.549V10.125C342.549 10.4091 342.59 10.6222 342.673 10.7642C342.758 10.9034 342.866 10.9972 342.996 11.0455C343.13 11.0909 343.271 11.1136 343.418 11.1136C343.529 11.1136 343.62 11.108 343.691 11.0966C343.762 11.0824 343.819 11.071 343.862 11.0625L344.066 11.9659C343.998 11.9915 343.903 12.017 343.781 12.0426C343.658 12.071 343.504 12.0852 343.316 12.0852C343.032 12.0852 342.754 12.0241 342.481 11.902C342.211 11.7798 341.987 11.5938 341.808 11.3438C341.631 11.0938 341.543 10.7784 341.543 10.3977V3.88636Z" fill="#9FA7A1"/>
  <path d="M466.208 3.27273V12H465.151V4.38068H465.1L462.969 5.79545V4.72159L465.151 3.27273H466.208ZM468.718 12V11.233L471.599 8.07955C471.937 7.71023 472.215 7.3892 472.434 7.11648C472.653 6.84091 472.814 6.58239 472.92 6.34091C473.028 6.09659 473.081 5.84091 473.081 5.57386C473.081 5.26705 473.008 5.00142 472.86 4.77699C472.715 4.55256 472.516 4.37926 472.263 4.2571C472.01 4.13494 471.726 4.07386 471.411 4.07386C471.076 4.07386 470.783 4.14347 470.533 4.28267C470.286 4.41903 470.094 4.6108 469.958 4.85795C469.824 5.10511 469.758 5.39489 469.758 5.72727H468.752C468.752 5.21591 468.87 4.76705 469.106 4.38068C469.341 3.99432 469.662 3.69318 470.069 3.47727C470.478 3.26136 470.937 3.15341 471.445 3.15341C471.956 3.15341 472.41 3.26136 472.805 3.47727C473.199 3.69318 473.509 3.98437 473.733 4.35085C473.958 4.71733 474.07 5.125 474.07 5.57386C474.07 5.89489 474.012 6.20881 473.895 6.51562C473.782 6.8196 473.583 7.15909 473.299 7.53409C473.018 7.90625 472.627 8.3608 472.127 8.89773L470.167 10.9943V11.0625H474.224V12H468.718ZM484.285 5.45455C484.233 5.02273 484.026 4.6875 483.662 4.44886C483.299 4.21023 482.853 4.09091 482.324 4.09091C481.938 4.09091 481.6 4.15341 481.31 4.27841C481.023 4.40341 480.799 4.57528 480.637 4.79403C480.478 5.01278 480.398 5.26136 480.398 5.53977C480.398 5.77273 480.454 5.97301 480.564 6.14062C480.678 6.3054 480.823 6.44318 480.999 6.55398C481.175 6.66193 481.36 6.75142 481.553 6.82244C481.746 6.89062 481.924 6.94602 482.086 6.98864L482.972 7.22727C483.199 7.28693 483.452 7.36932 483.731 7.47443C484.012 7.57955 484.28 7.72301 484.536 7.90483C484.795 8.08381 485.008 8.31392 485.175 8.59517C485.343 8.87642 485.427 9.22159 485.427 9.63068C485.427 10.1023 485.303 10.5284 485.056 10.9091C484.812 11.2898 484.454 11.5923 483.982 11.8168C483.513 12.0412 482.944 12.1534 482.273 12.1534C481.648 12.1534 481.107 12.0526 480.65 11.8509C480.195 11.6491 479.837 11.3679 479.576 11.0071C479.317 10.6463 479.171 10.2273 479.137 9.75H480.228C480.256 10.0795 480.367 10.3523 480.56 10.5682C480.756 10.7812 481.003 10.9403 481.302 11.0455C481.603 11.1477 481.927 11.1989 482.273 11.1989C482.677 11.1989 483.039 11.1335 483.36 11.0028C483.681 10.8693 483.935 10.6847 484.123 10.4489C484.31 10.2102 484.404 9.93182 484.404 9.61364C484.404 9.32386 484.323 9.08807 484.161 8.90625C483.999 8.72443 483.786 8.5767 483.522 8.46307C483.258 8.34943 482.972 8.25 482.665 8.16477L481.591 7.85795C480.91 7.66193 480.37 7.3821 479.972 7.01847C479.574 6.65483 479.376 6.17898 479.376 5.59091C479.376 5.10227 479.508 4.67614 479.772 4.3125C480.039 3.94602 480.397 3.66193 480.846 3.46023C481.297 3.25568 481.802 3.15341 482.358 3.15341C482.921 3.15341 483.421 3.25426 483.858 3.45597C484.296 3.65483 484.643 3.92756 484.898 4.27415C485.157 4.62074 485.293 5.0142 485.307 5.45455H484.285ZM489.772 12.1364C489.142 12.1364 488.597 11.9972 488.14 11.7188C487.686 11.4375 487.335 11.0455 487.088 10.5426C486.843 10.0369 486.721 9.44886 486.721 8.77841C486.721 8.10795 486.843 7.51705 487.088 7.00568C487.335 6.49148 487.678 6.09091 488.119 5.80398C488.562 5.5142 489.079 5.36932 489.67 5.36932C490.011 5.36932 490.347 5.42614 490.68 5.53977C491.012 5.65341 491.315 5.83807 491.588 6.09375C491.86 6.34659 492.078 6.68182 492.24 7.09943C492.401 7.51705 492.482 8.03125 492.482 8.64205V9.06818H487.437V8.19886H491.46C491.46 7.82955 491.386 7.5 491.238 7.21023C491.093 6.92045 490.886 6.69176 490.616 6.52415C490.349 6.35653 490.034 6.27273 489.67 6.27273C489.269 6.27273 488.923 6.37216 488.63 6.57102C488.34 6.76705 488.117 7.02273 487.961 7.33807C487.805 7.65341 487.727 7.99148 487.727 8.35227V8.93182C487.727 9.42614 487.812 9.84517 487.982 10.1889C488.156 10.5298 488.396 10.7898 488.703 10.9688C489.009 11.1449 489.366 11.233 489.772 11.233C490.036 11.233 490.275 11.196 490.488 11.1222C490.704 11.0455 490.89 10.9318 491.046 10.7812C491.203 10.6278 491.323 10.4375 491.409 10.2102L492.38 10.483C492.278 10.8125 492.106 11.1023 491.865 11.3523C491.623 11.5994 491.325 11.7926 490.97 11.9318C490.615 12.0682 490.215 12.1364 489.772 12.1364ZM494.012 14.4545V5.45455H494.984V6.49432H495.103C495.177 6.38068 495.279 6.2358 495.41 6.05966C495.544 5.88068 495.734 5.72159 495.981 5.58239C496.231 5.44034 496.569 5.36932 496.995 5.36932C497.546 5.36932 498.032 5.5071 498.453 5.78267C498.873 6.05824 499.201 6.44886 499.437 6.95455C499.673 7.46023 499.791 8.05682 499.791 8.74432C499.791 9.4375 499.673 10.0384 499.437 10.5469C499.201 11.0526 498.874 11.4446 498.457 11.723C498.039 11.9986 497.558 12.1364 497.012 12.1364C496.592 12.1364 496.255 12.0668 496.002 11.9276C495.749 11.7855 495.555 11.625 495.419 11.446C495.282 11.2642 495.177 11.1136 495.103 10.9943H495.018V14.4545H494.012ZM495.001 8.72727C495.001 9.22159 495.073 9.65767 495.218 10.0355C495.363 10.4105 495.575 10.7045 495.853 10.9176C496.132 11.1278 496.472 11.233 496.876 11.233C497.296 11.233 497.647 11.1222 497.928 10.9006C498.213 10.6761 498.426 10.375 498.568 9.99716C498.713 9.61648 498.785 9.19318 498.785 8.72727C498.785 8.26705 498.714 7.85227 498.572 7.48295C498.433 7.1108 498.221 6.81676 497.937 6.60085C497.656 6.3821 497.302 6.27273 496.876 6.27273C496.467 6.27273 496.123 6.37642 495.845 6.58381C495.566 6.78835 495.356 7.07528 495.214 7.4446C495.072 7.81108 495.001 8.23864 495.001 8.72727ZM504.171 5.45455V6.30682H500.779V5.45455H504.171ZM501.768 3.88636H502.774V10.125C502.774 10.4091 502.815 10.6222 502.897 10.7642C502.982 10.9034 503.09 10.9972 503.221 11.0455C503.355 11.0909 503.495 11.1136 503.643 11.1136C503.754 11.1136 503.845 11.108 503.916 11.0966C503.987 11.0824 504.044 11.071 504.086 11.0625L504.291 11.9659C504.222 11.9915 504.127 12.017 504.005 12.0426C503.883 12.071 503.728 12.0852 503.541 12.0852C503.257 12.0852 502.978 12.0241 502.705 11.902C502.436 11.7798 502.211 11.5938 502.032 11.3438C501.856 11.0938 501.768 10.7784 501.768 10.3977V3.88636Z" fill="#9FA7A1"/>
  <path d="M626.097 3.27273V12H625.04V4.38068H624.989L622.858 5.79545V4.72159L625.04 3.27273H626.097ZM631.504 12.1193C631.146 12.1136 630.788 12.0455 630.43 11.9148C630.072 11.7841 629.746 11.5639 629.45 11.2543C629.155 10.9418 628.918 10.5199 628.739 9.98864C628.56 9.45455 628.47 8.78409 628.47 7.97727C628.47 7.20455 628.543 6.51989 628.688 5.9233C628.832 5.32386 629.043 4.8196 629.318 4.41051C629.594 3.99858 629.926 3.68608 630.315 3.47301C630.707 3.25994 631.149 3.15341 631.641 3.15341C632.129 3.15341 632.564 3.25142 632.945 3.44744C633.328 3.64062 633.641 3.91051 633.882 4.2571C634.124 4.60369 634.28 5.00284 634.351 5.45455H633.311C633.214 5.0625 633.027 4.73722 632.749 4.47869C632.47 4.22017 632.101 4.09091 631.641 4.09091C630.964 4.09091 630.432 4.38494 630.043 4.97301C629.656 5.56108 629.462 6.38636 629.459 7.44886H629.527C629.686 7.20739 629.875 7.00142 630.094 6.83097C630.315 6.65767 630.56 6.52415 630.827 6.4304C631.094 6.33665 631.376 6.28977 631.675 6.28977C632.175 6.28977 632.632 6.41477 633.047 6.66477C633.462 6.91193 633.794 7.25426 634.044 7.69176C634.294 8.12642 634.419 8.625 634.419 9.1875C634.419 9.72727 634.298 10.2216 634.057 10.6705C633.815 11.1165 633.476 11.4716 633.038 11.7358C632.604 11.9972 632.092 12.125 631.504 12.1193ZM631.504 11.1818C631.862 11.1818 632.183 11.0923 632.467 10.9134C632.754 10.7344 632.98 10.4943 633.145 10.1932C633.313 9.89205 633.396 9.55682 633.396 9.1875C633.396 8.8267 633.315 8.49858 633.153 8.20312C632.994 7.90483 632.774 7.66761 632.493 7.49148C632.214 7.31534 631.896 7.22727 631.538 7.22727C631.268 7.22727 631.017 7.28125 630.784 7.3892C630.551 7.49432 630.347 7.6392 630.17 7.82386C629.997 8.00852 629.861 8.22017 629.761 8.45881C629.662 8.6946 629.612 8.94318 629.612 9.20455C629.612 9.55114 629.693 9.875 629.855 10.1761C630.02 10.4773 630.244 10.7202 630.528 10.9048C630.815 11.0895 631.141 11.1818 631.504 11.1818ZM644.396 5.45455C644.345 5.02273 644.137 4.6875 643.774 4.44886C643.41 4.21023 642.964 4.09091 642.436 4.09091C642.049 4.09091 641.711 4.15341 641.422 4.27841C641.135 4.40341 640.91 4.57528 640.748 4.79403C640.589 5.01278 640.51 5.26136 640.51 5.53977C640.51 5.77273 640.565 5.97301 640.676 6.14062C640.789 6.3054 640.934 6.44318 641.11 6.55398C641.287 6.66193 641.471 6.75142 641.664 6.82244C641.858 6.89062 642.035 6.94602 642.197 6.98864L643.083 7.22727C643.311 7.28693 643.564 7.36932 643.842 7.47443C644.123 7.57955 644.392 7.72301 644.647 7.90483C644.906 8.08381 645.119 8.31392 645.287 8.59517C645.454 8.87642 645.538 9.22159 645.538 9.63068C645.538 10.1023 645.414 10.5284 645.167 10.9091C644.923 11.2898 644.565 11.5923 644.093 11.8168C643.625 12.0412 643.055 12.1534 642.385 12.1534C641.76 12.1534 641.218 12.0526 640.761 11.8509C640.306 11.6491 639.949 11.3679 639.687 11.0071C639.429 10.6463 639.282 10.2273 639.248 9.75H640.339C640.368 10.0795 640.478 10.3523 640.672 10.5682C640.868 10.7812 641.115 10.9403 641.413 11.0455C641.714 11.1477 642.038 11.1989 642.385 11.1989C642.788 11.1989 643.15 11.1335 643.471 11.0028C643.792 10.8693 644.047 10.6847 644.234 10.4489C644.422 10.2102 644.515 9.93182 644.515 9.61364C644.515 9.32386 644.434 9.08807 644.272 8.90625C644.11 8.72443 643.897 8.5767 643.633 8.46307C643.369 8.34943 643.083 8.25 642.777 8.16477L641.703 7.85795C641.021 7.66193 640.481 7.3821 640.083 7.01847C639.686 6.65483 639.487 6.17898 639.487 5.59091C639.487 5.10227 639.619 4.67614 639.883 4.3125C640.15 3.94602 640.508 3.66193 640.957 3.46023C641.409 3.25568 641.913 3.15341 642.47 3.15341C643.032 3.15341 643.532 3.25426 643.97 3.45597C644.407 3.65483 644.754 3.92756 645.01 4.27415C645.268 4.62074 645.404 5.0142 645.419 5.45455H644.396ZM649.884 12.1364C649.253 12.1364 648.709 11.9972 648.251 11.7188C647.797 11.4375 647.446 11.0455 647.199 10.5426C646.955 10.0369 646.832 9.44886 646.832 8.77841C646.832 8.10795 646.955 7.51705 647.199 7.00568C647.446 6.49148 647.79 6.09091 648.23 5.80398C648.673 5.5142 649.19 5.36932 649.781 5.36932C650.122 5.36932 650.459 5.42614 650.791 5.53977C651.124 5.65341 651.426 5.83807 651.699 6.09375C651.972 6.34659 652.189 6.68182 652.351 7.09943C652.513 7.51705 652.594 8.03125 652.594 8.64205V9.06818H647.548V8.19886H651.571C651.571 7.82955 651.497 7.5 651.349 7.21023C651.205 6.92045 650.997 6.69176 650.727 6.52415C650.46 6.35653 650.145 6.27273 649.781 6.27273C649.381 6.27273 649.034 6.37216 648.741 6.57102C648.452 6.76705 648.229 7.02273 648.072 7.33807C647.916 7.65341 647.838 7.99148 647.838 8.35227V8.93182C647.838 9.42614 647.923 9.84517 648.094 10.1889C648.267 10.5298 648.507 10.7898 648.814 10.9688C649.121 11.1449 649.477 11.233 649.884 11.233C650.148 11.233 650.386 11.196 650.599 11.1222C650.815 11.0455 651.001 10.9318 651.158 10.7812C651.314 10.6278 651.435 10.4375 651.52 10.2102L652.491 10.483C652.389 10.8125 652.217 11.1023 651.976 11.3523C651.734 11.5994 651.436 11.7926 651.081 11.9318C650.726 12.0682 650.327 12.1364 649.884 12.1364ZM654.124 14.4545V5.45455H655.095V6.49432H655.214C655.288 6.38068 655.391 6.2358 655.521 6.05966C655.655 5.88068 655.845 5.72159 656.092 5.58239C656.342 5.44034 656.68 5.36932 657.107 5.36932C657.658 5.36932 658.143 5.5071 658.564 5.78267C658.984 6.05824 659.313 6.44886 659.548 6.95455C659.784 7.46023 659.902 8.05682 659.902 8.74432C659.902 9.4375 659.784 10.0384 659.548 10.5469C659.313 11.0526 658.986 11.4446 658.568 11.723C658.151 11.9986 657.669 12.1364 657.124 12.1364C656.703 12.1364 656.366 12.0668 656.114 11.9276C655.861 11.7855 655.666 11.625 655.53 11.446C655.393 11.2642 655.288 11.1136 655.214 10.9943H655.129V14.4545H654.124ZM655.112 8.72727C655.112 9.22159 655.185 9.65767 655.33 10.0355C655.474 10.4105 655.686 10.7045 655.964 10.9176C656.243 11.1278 656.584 11.233 656.987 11.233C657.408 11.233 657.759 11.1222 658.04 10.9006C658.324 10.6761 658.537 10.375 658.679 9.99716C658.824 9.61648 658.896 9.19318 658.896 8.72727C658.896 8.26705 658.825 7.85227 658.683 7.48295C658.544 7.1108 658.332 6.81676 658.048 6.60085C657.767 6.3821 657.413 6.27273 656.987 6.27273C656.578 6.27273 656.234 6.37642 655.956 6.58381C655.678 6.78835 655.467 7.07528 655.325 7.4446C655.183 7.81108 655.112 8.23864 655.112 8.72727ZM664.283 5.45455V6.30682H660.891V5.45455H664.283ZM661.879 3.88636H662.885V10.125C662.885 10.4091 662.926 10.6222 663.009 10.7642C663.094 10.9034 663.202 10.9972 663.332 11.0455C663.466 11.0909 663.607 11.1136 663.754 11.1136C663.865 11.1136 663.956 11.108 664.027 11.0966C664.098 11.0824 664.155 11.071 664.197 11.0625L664.402 11.9659C664.334 11.9915 664.239 12.017 664.116 12.0426C663.994 12.071 663.839 12.0852 663.652 12.0852C663.368 12.0852 663.089 12.0241 662.817 11.902C662.547 11.7798 662.322 11.5938 662.143 11.3438C661.967 11.0938 661.879 10.7784 661.879 10.3977V3.88636Z" fill="#9FA7A1"/>
  <path d="M783.358 12V11.233L786.239 8.07955C786.577 7.71023 786.856 7.3892 787.074 7.11648C787.293 6.84091 787.455 6.58239 787.56 6.34091C787.668 6.09659 787.722 5.84091 787.722 5.57386C787.722 5.26705 787.648 5.00142 787.501 4.77699C787.356 4.55256 787.157 4.37926 786.904 4.2571C786.651 4.13494 786.367 4.07386 786.052 4.07386C785.716 4.07386 785.424 4.14347 785.174 4.28267C784.927 4.41903 784.735 4.6108 784.599 4.85795C784.465 5.10511 784.398 5.39489 784.398 5.72727H783.393C783.393 5.21591 783.51 4.76705 783.746 4.38068C783.982 3.99432 784.303 3.69318 784.709 3.47727C785.118 3.26136 785.577 3.15341 786.086 3.15341C786.597 3.15341 787.05 3.26136 787.445 3.47727C787.84 3.69318 788.15 3.98437 788.374 4.35085C788.599 4.71733 788.711 5.125 788.711 5.57386C788.711 5.89489 788.653 6.20881 788.536 6.51562C788.422 6.8196 788.224 7.15909 787.939 7.53409C787.658 7.90625 787.268 8.3608 786.768 8.89773L784.807 10.9943V11.0625H788.864V12H783.358ZM793.471 12.1193C792.829 12.1193 792.282 11.9446 791.83 11.5952C791.378 11.2429 791.033 10.733 790.795 10.0653C790.556 9.39489 790.437 8.58523 790.437 7.63636C790.437 6.69318 790.556 5.88778 790.795 5.22017C791.036 4.54972 791.383 4.03835 791.834 3.68608C792.289 3.33097 792.834 3.15341 793.471 3.15341C794.107 3.15341 794.651 3.33097 795.103 3.68608C795.557 4.03835 795.904 4.54972 796.143 5.22017C796.384 5.88778 796.505 6.69318 796.505 7.63636C796.505 8.58523 796.385 9.39489 796.147 10.0653C795.908 10.733 795.563 11.2429 795.111 11.5952C794.66 11.9446 794.113 12.1193 793.471 12.1193ZM793.471 11.1818C794.107 11.1818 794.601 10.875 794.954 10.2614C795.306 9.64773 795.482 8.77273 795.482 7.63636C795.482 6.88068 795.401 6.23722 795.239 5.70597C795.08 5.17472 794.85 4.76989 794.549 4.49148C794.251 4.21307 793.891 4.07386 793.471 4.07386C792.84 4.07386 792.347 4.38494 791.992 5.0071C791.637 5.62642 791.459 6.50284 791.459 7.63636C791.459 8.39205 791.539 9.03409 791.698 9.5625C791.857 10.0909 792.086 10.4929 792.384 10.7685C792.685 11.044 793.047 11.1818 793.471 11.1818ZM806.425 5.45455C806.374 5.02273 806.167 4.6875 805.803 4.44886C805.439 4.21023 804.993 4.09091 804.465 4.09091C804.079 4.09091 803.741 4.15341 803.451 4.27841C803.164 4.40341 802.939 4.57528 802.778 4.79403C802.618 5.01278 802.539 5.26136 802.539 5.53977C802.539 5.77273 802.594 5.97301 802.705 6.14062C802.819 6.3054 802.964 6.44318 803.14 6.55398C803.316 6.66193 803.501 6.75142 803.694 6.82244C803.887 6.89062 804.064 6.94602 804.226 6.98864L805.113 7.22727C805.34 7.28693 805.593 7.36932 805.871 7.47443C806.153 7.57955 806.421 7.72301 806.677 7.90483C806.935 8.08381 807.148 8.31392 807.316 8.59517C807.483 8.87642 807.567 9.22159 807.567 9.63068C807.567 10.1023 807.444 10.5284 807.197 10.9091C806.952 11.2898 806.594 11.5923 806.123 11.8168C805.654 12.0412 805.084 12.1534 804.414 12.1534C803.789 12.1534 803.248 12.0526 802.79 11.8509C802.336 11.6491 801.978 11.3679 801.716 11.0071C801.458 10.6463 801.312 10.2273 801.278 9.75H802.368C802.397 10.0795 802.508 10.3523 802.701 10.5682C802.897 10.7812 803.144 10.9403 803.442 11.0455C803.743 11.1477 804.067 11.1989 804.414 11.1989C804.817 11.1989 805.18 11.1335 805.501 11.0028C805.822 10.8693 806.076 10.6847 806.263 10.4489C806.451 10.2102 806.545 9.93182 806.545 9.61364C806.545 9.32386 806.464 9.08807 806.302 8.90625C806.14 8.72443 805.927 8.5767 805.662 8.46307C805.398 8.34943 805.113 8.25 804.806 8.16477L803.732 7.85795C803.05 7.66193 802.51 7.3821 802.113 7.01847C801.715 6.65483 801.516 6.17898 801.516 5.59091C801.516 5.10227 801.648 4.67614 801.912 4.3125C802.18 3.94602 802.537 3.66193 802.986 3.46023C803.438 3.25568 803.942 3.15341 804.499 3.15341C805.062 3.15341 805.562 3.25426 805.999 3.45597C806.437 3.65483 806.783 3.92756 807.039 4.27415C807.297 4.62074 807.434 5.0142 807.448 5.45455H806.425ZM811.913 12.1364C811.282 12.1364 810.738 11.9972 810.281 11.7188C809.826 11.4375 809.475 11.0455 809.228 10.5426C808.984 10.0369 808.862 9.44886 808.862 8.77841C808.862 8.10795 808.984 7.51705 809.228 7.00568C809.475 6.49148 809.819 6.09091 810.259 5.80398C810.703 5.5142 811.22 5.36932 811.811 5.36932C812.151 5.36932 812.488 5.42614 812.82 5.53977C813.153 5.65341 813.455 5.83807 813.728 6.09375C814.001 6.34659 814.218 6.68182 814.38 7.09943C814.542 7.51705 814.623 8.03125 814.623 8.64205V9.06818H809.578V8.19886H813.6C813.6 7.82955 813.526 7.5 813.379 7.21023C813.234 6.92045 813.026 6.69176 812.757 6.52415C812.49 6.35653 812.174 6.27273 811.811 6.27273C811.41 6.27273 811.063 6.37216 810.771 6.57102C810.481 6.76705 810.258 7.02273 810.102 7.33807C809.945 7.65341 809.867 7.99148 809.867 8.35227V8.93182C809.867 9.42614 809.953 9.84517 810.123 10.1889C810.296 10.5298 810.536 10.7898 810.843 10.9688C811.15 11.1449 811.507 11.233 811.913 11.233C812.177 11.233 812.416 11.196 812.629 11.1222C812.845 11.0455 813.031 10.9318 813.187 10.7812C813.343 10.6278 813.464 10.4375 813.549 10.2102L814.521 10.483C814.419 10.8125 814.247 11.1023 814.005 11.3523C813.764 11.5994 813.465 11.7926 813.11 11.9318C812.755 12.0682 812.356 12.1364 811.913 12.1364ZM816.153 14.4545V5.45455H817.124V6.49432H817.244C817.318 6.38068 817.42 6.2358 817.551 6.05966C817.684 5.88068 817.874 5.72159 818.122 5.58239C818.372 5.44034 818.71 5.36932 819.136 5.36932C819.687 5.36932 820.173 5.5071 820.593 5.78267C821.014 6.05824 821.342 6.44886 821.578 6.95455C821.813 7.46023 821.931 8.05682 821.931 8.74432C821.931 9.4375 821.813 10.0384 821.578 10.5469C821.342 11.0526 821.015 11.4446 820.597 11.723C820.18 11.9986 819.698 12.1364 819.153 12.1364C818.732 12.1364 818.396 12.0668 818.143 11.9276C817.89 11.7855 817.695 11.625 817.559 11.446C817.423 11.2642 817.318 11.1136 817.244 10.9943H817.159V14.4545H816.153ZM817.142 8.72727C817.142 9.22159 817.214 9.65767 817.359 10.0355C817.504 10.4105 817.715 10.7045 817.994 10.9176C818.272 11.1278 818.613 11.233 819.017 11.233C819.437 11.233 819.788 11.1222 820.069 10.9006C820.353 10.6761 820.566 10.375 820.708 9.99716C820.853 9.61648 820.926 9.19318 820.926 8.72727C820.926 8.26705 820.855 7.85227 820.713 7.48295C820.573 7.1108 820.362 6.81676 820.078 6.60085C819.796 6.3821 819.443 6.27273 819.017 6.27273C818.607 6.27273 818.264 6.37642 817.985 6.58381C817.707 6.78835 817.497 7.07528 817.355 7.4446C817.213 7.81108 817.142 8.23864 817.142 8.72727Z" fill="#9FA7A1"/>
  <path d="M941.173 12V11.233L944.054 8.07955C944.392 7.71023 944.67 7.3892 944.889 7.11648C945.108 6.84091 945.27 6.58239 945.375 6.34091C945.483 6.09659 945.537 5.84091 945.537 5.57386C945.537 5.26705 945.463 5.00142 945.315 4.77699C945.17 4.55256 944.971 4.37926 944.718 4.2571C944.466 4.13494 944.181 4.07386 943.866 4.07386C943.531 4.07386 943.238 4.14347 942.988 4.28267C942.741 4.41903 942.549 4.6108 942.413 4.85795C942.279 5.10511 942.213 5.39489 942.213 5.72727H941.207C941.207 5.21591 941.325 4.76705 941.561 4.38068C941.797 3.99432 942.118 3.69318 942.524 3.47727C942.933 3.26136 943.392 3.15341 943.9 3.15341C944.412 3.15341 944.865 3.26136 945.26 3.47727C945.654 3.69318 945.964 3.98437 946.189 4.35085C946.413 4.71733 946.525 5.125 946.525 5.57386C946.525 5.89489 946.467 6.20881 946.35 6.51562C946.237 6.8196 946.038 7.15909 945.754 7.53409C945.473 7.90625 945.082 8.3608 944.582 8.89773L942.622 10.9943V11.0625H946.679V12H941.173ZM948.047 10.2102V9.34091L951.882 3.27273H952.512V4.61932H952.086L949.189 9.20455V9.27273H954.353V10.2102H948.047ZM952.154 12V9.94602V9.54119V3.27273H953.16V12H952.154ZM964.251 5.45455C964.2 5.02273 963.993 4.6875 963.629 4.44886C963.266 4.21023 962.82 4.09091 962.291 4.09091C961.905 4.09091 961.567 4.15341 961.277 4.27841C960.99 4.40341 960.766 4.57528 960.604 4.79403C960.445 5.01278 960.365 5.26136 960.365 5.53977C960.365 5.77273 960.42 5.97301 960.531 6.14062C960.645 6.3054 960.79 6.44318 960.966 6.55398C961.142 6.66193 961.327 6.75142 961.52 6.82244C961.713 6.89062 961.891 6.94602 962.053 6.98864L962.939 7.22727C963.166 7.28693 963.419 7.36932 963.697 7.47443C963.979 7.57955 964.247 7.72301 964.503 7.90483C964.761 8.08381 964.974 8.31392 965.142 8.59517C965.31 8.87642 965.393 9.22159 965.393 9.63068C965.393 10.1023 965.27 10.5284 965.023 10.9091C964.778 11.2898 964.42 11.5923 963.949 11.8168C963.48 12.0412 962.911 12.1534 962.24 12.1534C961.615 12.1534 961.074 12.0526 960.616 11.8509C960.162 11.6491 959.804 11.3679 959.543 11.0071C959.284 10.6463 959.138 10.2273 959.104 9.75H960.195C960.223 10.0795 960.334 10.3523 960.527 10.5682C960.723 10.7812 960.97 10.9403 961.268 11.0455C961.57 11.1477 961.893 11.1989 962.24 11.1989C962.643 11.1989 963.006 11.1335 963.327 11.0028C963.648 10.8693 963.902 10.6847 964.089 10.4489C964.277 10.2102 964.371 9.93182 964.371 9.61364C964.371 9.32386 964.29 9.08807 964.128 8.90625C963.966 8.72443 963.753 8.5767 963.489 8.46307C963.224 8.34943 962.939 8.25 962.632 8.16477L961.558 7.85795C960.876 7.66193 960.337 7.3821 959.939 7.01847C959.541 6.65483 959.342 6.17898 959.342 5.59091C959.342 5.10227 959.474 4.67614 959.739 4.3125C960.006 3.94602 960.364 3.66193 960.812 3.46023C961.264 3.25568 961.768 3.15341 962.325 3.15341C962.888 3.15341 963.388 3.25426 963.825 3.45597C964.263 3.65483 964.609 3.92756 964.865 4.27415C965.124 4.62074 965.26 5.0142 965.274 5.45455H964.251ZM969.739 12.1364C969.108 12.1364 968.564 11.9972 968.107 11.7188C967.652 11.4375 967.301 11.0455 967.054 10.5426C966.81 10.0369 966.688 9.44886 966.688 8.77841C966.688 8.10795 966.81 7.51705 967.054 7.00568C967.301 6.49148 967.645 6.09091 968.086 5.80398C968.529 5.5142 969.046 5.36932 969.637 5.36932C969.978 5.36932 970.314 5.42614 970.647 5.53977C970.979 5.65341 971.282 5.83807 971.554 6.09375C971.827 6.34659 972.044 6.68182 972.206 7.09943C972.368 7.51705 972.449 8.03125 972.449 8.64205V9.06818H967.404V8.19886H971.426C971.426 7.82955 971.353 7.5 971.205 7.21023C971.06 6.92045 970.853 6.69176 970.583 6.52415C970.316 6.35653 970 6.27273 969.637 6.27273C969.236 6.27273 968.89 6.37216 968.597 6.57102C968.307 6.76705 968.084 7.02273 967.928 7.33807C967.772 7.65341 967.694 7.99148 967.694 8.35227V8.93182C967.694 9.42614 967.779 9.84517 967.949 10.1889C968.123 10.5298 968.363 10.7898 968.669 10.9688C968.976 11.1449 969.333 11.233 969.739 11.233C970.003 11.233 970.242 11.196 970.455 11.1222C970.671 11.0455 970.857 10.9318 971.013 10.7812C971.169 10.6278 971.29 10.4375 971.375 10.2102L972.347 10.483C972.245 10.8125 972.073 11.1023 971.831 11.3523C971.59 11.5994 971.292 11.7926 970.936 11.9318C970.581 12.0682 970.182 12.1364 969.739 12.1364ZM973.979 14.4545V5.45455H974.951V6.49432H975.07C975.144 6.38068 975.246 6.2358 975.377 6.05966C975.51 5.88068 975.701 5.72159 975.948 5.58239C976.198 5.44034 976.536 5.36932 976.962 5.36932C977.513 5.36932 977.999 5.5071 978.419 5.78267C978.84 6.05824 979.168 6.44886 979.404 6.95455C979.64 7.46023 979.757 8.05682 979.757 8.74432C979.757 9.4375 979.64 10.0384 979.404 10.5469C979.168 11.0526 978.841 11.4446 978.424 11.723C978.006 11.9986 977.525 12.1364 976.979 12.1364C976.559 12.1364 976.222 12.0668 975.969 11.9276C975.716 11.7855 975.522 11.625 975.385 11.446C975.249 11.2642 975.144 11.1136 975.07 10.9943H974.985V14.4545H973.979ZM974.968 8.72727C974.968 9.22159 975.04 9.65767 975.185 10.0355C975.33 10.4105 975.542 10.7045 975.82 10.9176C976.098 11.1278 976.439 11.233 976.843 11.233C977.263 11.233 977.614 11.1222 977.895 10.9006C978.179 10.6761 978.392 10.375 978.534 9.99716C978.679 9.61648 978.752 9.19318 978.752 8.72727C978.752 8.26705 978.681 7.85227 978.539 7.48295C978.4 7.1108 978.188 6.81676 977.904 6.60085C977.623 6.3821 977.269 6.27273 976.843 6.27273C976.434 6.27273 976.09 6.37642 975.811 6.58381C975.533 6.78835 975.323 7.07528 975.181 7.4446C975.039 7.81108 974.968 8.23864 974.968 8.72727ZM984.138 5.45455V6.30682H980.746V5.45455H984.138ZM981.735 3.88636H982.74V10.125C982.74 10.4091 982.782 10.6222 982.864 10.7642C982.949 10.9034 983.057 10.9972 983.188 11.0455C983.321 11.0909 983.462 11.1136 983.61 11.1136C983.721 11.1136 983.811 11.108 983.882 11.0966C983.953 11.0824 984.01 11.071 984.053 11.0625L984.257 11.9659C984.189 11.9915 984.094 12.017 983.972 12.0426C983.85 12.071 983.695 12.0852 983.507 12.0852C983.223 12.0852 982.945 12.0241 982.672 11.902C982.402 11.7798 982.178 11.5938 981.999 11.3438C981.823 11.0938 981.735 10.7784 981.735 10.3977V3.88636Z" fill="#9FA7A1"/>
  <path d="M1103.23 12V11.233L1106.11 8.07955C1106.45 7.71023 1106.73 7.3892 1106.95 7.11648C1107.17 6.84091 1107.33 6.58239 1107.43 6.34091C1107.54 6.09659 1107.6 5.84091 1107.6 5.57386C1107.6 5.26705 1107.52 5.00142 1107.37 4.77699C1107.23 4.55256 1107.03 4.37926 1106.78 4.2571C1106.52 4.13494 1106.24 4.07386 1105.92 4.07386C1105.59 4.07386 1105.3 4.14347 1105.05 4.28267C1104.8 4.41903 1104.61 4.6108 1104.47 4.85795C1104.34 5.10511 1104.27 5.39489 1104.27 5.72727H1103.27C1103.27 5.21591 1103.38 4.76705 1103.62 4.38068C1103.86 3.99432 1104.18 3.69318 1104.58 3.47727C1104.99 3.26136 1105.45 3.15341 1105.96 3.15341C1106.47 3.15341 1106.92 3.26136 1107.32 3.47727C1107.71 3.69318 1108.02 3.98437 1108.25 4.35085C1108.47 4.71733 1108.58 5.125 1108.58 5.57386C1108.58 5.89489 1108.53 6.20881 1108.41 6.51562C1108.3 6.8196 1108.1 7.15909 1107.81 7.53409C1107.53 7.90625 1107.14 8.3608 1106.64 8.89773L1104.68 10.9943V11.0625H1108.74V12H1103.23ZM1113.29 12.1193C1112.71 12.1193 1112.19 12.0156 1111.74 11.8082C1111.3 11.598 1110.95 11.3097 1110.7 10.9432C1110.45 10.5739 1110.32 10.1534 1110.33 9.68182C1110.32 9.3125 1110.4 8.97159 1110.54 8.65909C1110.69 8.34375 1110.89 8.08097 1111.15 7.87074C1111.41 7.65767 1111.7 7.52273 1112.01 7.46591V7.41477C1111.6 7.30682 1111.26 7.07244 1111.02 6.71165C1110.77 6.34801 1110.65 5.93466 1110.65 5.47159C1110.65 5.02841 1110.76 4.6321 1110.99 4.28267C1111.21 3.93324 1111.53 3.65767 1111.92 3.45597C1112.33 3.25426 1112.78 3.15341 1113.29 3.15341C1113.8 3.15341 1114.25 3.25426 1114.65 3.45597C1115.05 3.65767 1115.36 3.93324 1115.59 4.28267C1115.82 4.6321 1115.93 5.02841 1115.93 5.47159C1115.93 5.93466 1115.81 6.34801 1115.56 6.71165C1115.31 7.07244 1114.98 7.30682 1114.57 7.41477V7.46591C1114.89 7.52273 1115.17 7.65767 1115.42 7.87074C1115.68 8.08097 1115.88 8.34375 1116.03 8.65909C1116.18 8.97159 1116.26 9.3125 1116.26 9.68182C1116.26 10.1534 1116.13 10.5739 1115.88 10.9432C1115.62 11.3097 1115.28 11.598 1114.83 11.8082C1114.39 12.0156 1113.88 12.1193 1113.29 12.1193ZM1113.29 11.1818C1113.69 11.1818 1114.03 11.1179 1114.32 10.9901C1114.6 10.8622 1114.82 10.6818 1114.98 10.4489C1115.14 10.2159 1115.22 9.94318 1115.22 9.63068C1115.22 9.30114 1115.13 9.00994 1114.96 8.7571C1114.8 8.50426 1114.57 8.3054 1114.28 8.16051C1113.99 8.01562 1113.66 7.94318 1113.29 7.94318C1112.92 7.94318 1112.59 8.01562 1112.3 8.16051C1112.01 8.3054 1111.78 8.50426 1111.61 8.7571C1111.44 9.00994 1111.36 9.30114 1111.37 9.63068C1111.36 9.94318 1111.44 10.2159 1111.59 10.4489C1111.75 10.6818 1111.97 10.8622 1112.26 10.9901C1112.55 11.1179 1112.89 11.1818 1113.29 11.1818ZM1113.29 7.03977C1113.61 7.03977 1113.88 6.97727 1114.12 6.85227C1114.37 6.72727 1114.56 6.55256 1114.7 6.32812C1114.84 6.10369 1114.91 5.84091 1114.91 5.53977C1114.91 5.24432 1114.84 4.98722 1114.7 4.76847C1114.57 4.54687 1114.38 4.37642 1114.14 4.2571C1113.89 4.13494 1113.61 4.07386 1113.29 4.07386C1112.97 4.07386 1112.68 4.13494 1112.44 4.2571C1112.19 4.37642 1112 4.54687 1111.87 4.76847C1111.74 4.98722 1111.67 5.24432 1111.67 5.53977C1111.67 5.84091 1111.74 6.10369 1111.87 6.32812C1112.01 6.55256 1112.2 6.72727 1112.45 6.85227C1112.69 6.97727 1112.97 7.03977 1113.29 7.03977ZM1126.19 5.45455C1126.14 5.02273 1125.93 4.6875 1125.57 4.44886C1125.21 4.21023 1124.76 4.09091 1124.23 4.09091C1123.85 4.09091 1123.51 4.15341 1123.22 4.27841C1122.93 4.40341 1122.71 4.57528 1122.55 4.79403C1122.39 5.01278 1122.31 5.26136 1122.31 5.53977C1122.31 5.77273 1122.36 5.97301 1122.47 6.14062C1122.59 6.3054 1122.73 6.44318 1122.91 6.55398C1123.08 6.66193 1123.27 6.75142 1123.46 6.82244C1123.65 6.89062 1123.83 6.94602 1123.99 6.98864L1124.88 7.22727C1125.11 7.28693 1125.36 7.36932 1125.64 7.47443C1125.92 7.57955 1126.19 7.72301 1126.44 7.90483C1126.7 8.08381 1126.92 8.31392 1127.08 8.59517C1127.25 8.87642 1127.33 9.22159 1127.33 9.63068C1127.33 10.1023 1127.21 10.5284 1126.96 10.9091C1126.72 11.2898 1126.36 11.5923 1125.89 11.8168C1125.42 12.0412 1124.85 12.1534 1124.18 12.1534C1123.56 12.1534 1123.02 12.0526 1122.56 11.8509C1122.1 11.6491 1121.75 11.3679 1121.48 11.0071C1121.23 10.6463 1121.08 10.2273 1121.05 9.75H1122.14C1122.16 10.0795 1122.28 10.3523 1122.47 10.5682C1122.66 10.7812 1122.91 10.9403 1123.21 11.0455C1123.51 11.1477 1123.83 11.1989 1124.18 11.1989C1124.58 11.1989 1124.95 11.1335 1125.27 11.0028C1125.59 10.8693 1125.84 10.6847 1126.03 10.4489C1126.22 10.2102 1126.31 9.93182 1126.31 9.61364C1126.31 9.32386 1126.23 9.08807 1126.07 8.90625C1125.91 8.72443 1125.69 8.5767 1125.43 8.46307C1125.17 8.34943 1124.88 8.25 1124.57 8.16477L1123.5 7.85795C1122.82 7.66193 1122.28 7.3821 1121.88 7.01847C1121.48 6.65483 1121.28 6.17898 1121.28 5.59091C1121.28 5.10227 1121.42 4.67614 1121.68 4.3125C1121.95 3.94602 1122.31 3.66193 1122.75 3.46023C1123.21 3.25568 1123.71 3.15341 1124.27 3.15341C1124.83 3.15341 1125.33 3.25426 1125.77 3.45597C1126.2 3.65483 1126.55 3.92756 1126.81 4.27415C1127.06 4.62074 1127.2 5.0142 1127.22 5.45455H1126.19ZM1131.68 12.1364C1131.05 12.1364 1130.51 11.9972 1130.05 11.7188C1129.59 11.4375 1129.24 11.0455 1129 10.5426C1128.75 10.0369 1128.63 9.44886 1128.63 8.77841C1128.63 8.10795 1128.75 7.51705 1129 7.00568C1129.24 6.49148 1129.59 6.09091 1130.03 5.80398C1130.47 5.5142 1130.99 5.36932 1131.58 5.36932C1131.92 5.36932 1132.26 5.42614 1132.59 5.53977C1132.92 5.65341 1133.22 5.83807 1133.5 6.09375C1133.77 6.34659 1133.99 6.68182 1134.15 7.09943C1134.31 7.51705 1134.39 8.03125 1134.39 8.64205V9.06818H1129.35V8.19886H1133.37C1133.37 7.82955 1133.29 7.5 1133.15 7.21023C1133 6.92045 1132.79 6.69176 1132.52 6.52415C1132.26 6.35653 1131.94 6.27273 1131.58 6.27273C1131.18 6.27273 1130.83 6.37216 1130.54 6.57102C1130.25 6.76705 1130.03 7.02273 1129.87 7.33807C1129.71 7.65341 1129.63 7.99148 1129.63 8.35227V8.93182C1129.63 9.42614 1129.72 9.84517 1129.89 10.1889C1130.06 10.5298 1130.3 10.7898 1130.61 10.9688C1130.92 11.1449 1131.27 11.233 1131.68 11.233C1131.94 11.233 1132.18 11.196 1132.4 11.1222C1132.61 11.0455 1132.8 10.9318 1132.95 10.7812C1133.11 10.6278 1133.23 10.4375 1133.32 10.2102L1134.29 10.483C1134.19 10.8125 1134.01 11.1023 1133.77 11.3523C1133.53 11.5994 1133.23 11.7926 1132.88 11.9318C1132.52 12.0682 1132.12 12.1364 1131.68 12.1364ZM1135.92 14.4545V5.45455H1136.89V6.49432H1137.01C1137.09 6.38068 1137.19 6.2358 1137.32 6.05966C1137.45 5.88068 1137.64 5.72159 1137.89 5.58239C1138.14 5.44034 1138.48 5.36932 1138.9 5.36932C1139.45 5.36932 1139.94 5.5071 1140.36 5.78267C1140.78 6.05824 1141.11 6.44886 1141.35 6.95455C1141.58 7.46023 1141.7 8.05682 1141.7 8.74432C1141.7 9.4375 1141.58 10.0384 1141.35 10.5469C1141.11 11.0526 1140.78 11.4446 1140.37 11.723C1139.95 11.9986 1139.47 12.1364 1138.92 12.1364C1138.5 12.1364 1138.16 12.0668 1137.91 11.9276C1137.66 11.7855 1137.46 11.625 1137.33 11.446C1137.19 11.2642 1137.09 11.1136 1137.01 10.9943H1136.93V14.4545H1135.92ZM1136.91 8.72727C1136.91 9.22159 1136.98 9.65767 1137.13 10.0355C1137.27 10.4105 1137.48 10.7045 1137.76 10.9176C1138.04 11.1278 1138.38 11.233 1138.78 11.233C1139.2 11.233 1139.56 11.1222 1139.84 10.9006C1140.12 10.6761 1140.33 10.375 1140.48 9.99716C1140.62 9.61648 1140.69 9.19318 1140.69 8.72727C1140.69 8.26705 1140.62 7.85227 1140.48 7.48295C1140.34 7.1108 1140.13 6.81676 1139.85 6.60085C1139.56 6.3821 1139.21 6.27273 1138.78 6.27273C1138.38 6.27273 1138.03 6.37642 1137.75 6.58381C1137.47 6.78835 1137.26 7.07528 1137.12 7.4446C1136.98 7.81108 1136.91 8.23864 1136.91 8.72727ZM1146.08 5.45455V6.30682H1142.69V5.45455H1146.08ZM1143.68 3.88636H1144.68V10.125C1144.68 10.4091 1144.72 10.6222 1144.81 10.7642C1144.89 10.9034 1145 10.9972 1145.13 11.0455C1145.26 11.0909 1145.4 11.1136 1145.55 11.1136C1145.66 11.1136 1145.75 11.108 1145.82 11.0966C1145.89 11.0824 1145.95 11.071 1145.99 11.0625L1146.2 11.9659C1146.13 11.9915 1146.04 12.017 1145.91 12.0426C1145.79 12.071 1145.64 12.0852 1145.45 12.0852C1145.16 12.0852 1144.89 12.0241 1144.61 11.902C1144.34 11.7798 1144.12 11.5938 1143.94 11.3438C1143.76 11.0938 1143.68 10.7784 1143.68 10.3977V3.88636Z" fill="#9FA7A1"/>
</svg>
