<svg width="16" height="16" viewBox="0 0 16 16" fill="none"
  xmlns="http://www.w3.org/2000/svg">
  <path fill-rule="evenodd" clip-rule="evenodd" d="M1.54622 11.1205C1.52866 11.083 1.51116 11.0456 1.49391 11.0084C1.06988 10.0931 0.833328 9.07348 0.833328 8.00004C0.833328 4.042 4.04195 0.833374 8 0.833374C11.958 0.833374 15.1667 4.042 15.1667 8.00004C15.1667 11.9581 11.958 15.1667 8 15.1667C7.19065 15.1667 6.4814 15.0511 5.81577 14.813C5.22023 14.5999 4.97618 14.5137 4.90254 14.4964C4.45505 14.3911 4.0314 14.595 3.61101 14.7974C3.33958 14.928 3.06951 15.058 2.79526 15.1037C2.04561 15.2286 1.37857 14.6149 1.44078 13.8574C1.46301 13.5868 1.56777 13.3555 1.67317 13.1228C1.74108 12.9729 1.80925 12.8224 1.85581 12.6604C2.01236 12.1156 1.77408 11.6069 1.54622 11.1205ZM7.1665 6.66671C7.1665 6.20647 7.5396 5.83337 7.99983 5.83337C8.46007 5.83337 8.83317 6.20647 8.83317 6.66671V6.74759C8.83317 6.99005 8.73685 7.22259 8.5654 7.39403L7.64628 8.31315C7.45102 8.50842 7.45102 8.825 7.64628 9.02026C7.84154 9.21552 8.15812 9.21552 8.35339 9.02026L9.27251 8.10114C9.63149 7.74216 9.83317 7.25527 9.83317 6.74759V6.66671C9.83317 5.65419 9.01235 4.83337 7.99983 4.83337C6.98731 4.83337 6.1665 5.65419 6.1665 6.66671V7.00004C6.1665 7.27618 6.39036 7.50004 6.6665 7.50004C6.94264 7.50004 7.1665 7.27618 7.1665 7.00004V6.66671ZM7.99983 9.83337C7.5396 9.83337 7.1665 10.2065 7.1665 10.6667C7.1665 11.1269 7.5396 11.5 7.99983 11.5C8.46007 11.5 8.83317 11.1269 8.83317 10.6667C8.83317 10.2065 8.46007 9.83337 7.99983 9.83337Z" fill="black"/>
</svg>
