<svg width="16" height="16" viewBox="0 0 16 16" fill="none"
  xmlns="http://www.w3.org/2000/svg">
  <path d="M8.00004 10.6666V7.33331M8.33337 5.33331C8.33337 5.51741 8.18414 5.66665 8.00004 5.66665C7.81595 5.66665 7.66671 5.51741 7.66671 5.33331M8.33337 5.33331C8.33337 5.14922 8.18414 4.99998 8.00004 4.99998C7.81595 4.99998 7.66671 5.14922 7.66671 5.33331M8.33337 5.33331H7.66671M14.6667 7.99998C14.6667 11.6819 11.6819 14.6666 8.00004 14.6666C4.31814 14.6666 1.33337 11.6819 1.33337 7.99998C1.33337 4.31808 4.31814 1.33331 8.00004 1.33331C11.6819 1.33331 14.6667 4.31808 14.6667 7.99998Z" stroke="#595E5A" stroke-linecap="round" stroke-linejoin="round"/>
</svg>
