<svg width="16" height="16" viewBox="0 0 16 16" fill="none"
  xmlns="http://www.w3.org/2000/svg">
  <path d="M9.33337 10.667L9.33333 11V11C9.33334 11.9306 9.33335 12.3959 9.21846 12.7746C8.95991 13.6267 8.29309 14.2935 7.44099 14.5521C7.06236 14.667 6.59703 14.667 5.66638 14.667H5.33335C4.09086 14.667 3.46962 14.667 2.97957 14.464C2.32615 14.1933 1.80701 13.6742 1.53636 13.0208C1.33337 12.5307 1.33337 11.9095 1.33337 10.667L1.33338 5.33362C1.33338 4.09111 1.33338 3.46985 1.53636 2.9798C1.80701 2.32639 2.32615 1.80726 2.97955 1.53661C3.46961 1.33362 4.09086 1.33362 5.33337 1.33362L5.66703 1.33362C6.5971 1.33362 7.06214 1.33362 7.44056 1.44837C8.29302 1.70687 8.96012 2.37397 9.21862 3.22644C9.33337 3.60485 9.33337 4.06989 9.33337 4.99996V4.99996V5.33362M6.00004 7.99996L14.6667 7.99996M14.6667 7.99996L12 5.33329M14.6667 7.99996L12 10.6666" stroke-linecap="round" stroke-linejoin="round"/>
</svg>
