<svg width="16" height="16" viewBox="0 0 16 16"
  xmlns="http://www.w3.org/2000/svg">
  <path d="M7.99992 0.833374C5.51464 0.833374 3.49992 2.84809 3.49992 5.33337V6.71287C3.49992 7.18317 3.32378 7.63643 3.0062 7.98332L2.07239 9.00332C1.25571 9.89539 1.58603 11.329 2.71073 11.7738C6.10883 13.1176 9.89101 13.1176 13.2891 11.7738C14.4138 11.329 14.7441 9.89539 13.9274 9.00332L12.9936 7.98332C12.6761 7.63643 12.4999 7.18317 12.4999 6.71287V5.33337C12.4999 2.84809 10.4852 0.833374 7.99992 0.833374Z" />
  <path d="M5.43311 13.392C5.74897 14.5123 6.77859 15.3335 7.99999 15.3335C9.2214 15.3335 10.251 14.5123 10.5669 13.392C8.86846 13.6866 7.13153 13.6866 5.43311 13.392Z" />
</svg>
 