<svg width="40" height="40" viewBox="0 0 40 40" fill="none"
  xmlns="http://www.w3.org/2000/svg">
  <g clip-path="url(#clip0_1_4707)">
    <rect width="40" height="40" fill="#50AF95"/>
    <path fill-rule="evenodd" clip-rule="evenodd" d="M22.426 20.7981C22.2882 20.8084 21.5766 20.8509 19.9892 20.8509C18.7267 20.8509 17.8303 20.813 17.5158 20.7981C12.6365 20.5835 8.99463 19.7345 8.99463 18.7179C8.99463 17.7013 12.6365 16.8534 17.5158 16.6354V19.9525C17.8348 19.9754 18.7485 20.0293 20.011 20.0293C21.5261 20.0293 22.2848 19.9662 22.4214 19.9536V16.6377C27.2903 16.8545 30.9242 17.7036 30.9242 18.7179C30.9242 19.7322 27.2914 20.5812 22.4214 20.7969L22.426 20.7981ZM22.426 16.2946V13.3263H29.2208V8.79993H10.7209V13.3263H17.5146V16.2935C11.9926 16.547 7.83997 17.6405 7.83997 18.9508C7.83997 20.2611 11.9926 21.3534 17.5146 21.6081V31.1199H22.4248V21.6047C27.9342 21.3511 32.08 20.2588 32.08 18.9497C32.08 17.6405 27.9376 16.5482 22.4248 16.2935L22.426 16.2946Z" fill="white"/>
  </g>
  <defs>
    <clipPath id="clip0_1_4707">
      <rect width="40" height="40" rx="20" fill="white"/>
    </clipPath>
  </defs>
</svg>
